<?xml version="1.0" encoding="iso-8859-1"?>
<!-- Generator: Adobe Illustrator 18.1.1, SVG Export Plug-In . SVG Version: 6.00 Build 0)  -->
<svg version="1.1" id="Capa_1" xmlns="http://www.w3.org/2000/svg" xmlns:xlink="http://www.w3.org/1999/xlink" x="0px" y="0px"
	 viewBox="0 0 384.912 384.912" style="enable-background:new 0 0 384.912 384.912;" xml:space="preserve">
<g>
	<path style="fill:#010002;" d="M384.912,192.46C384.912,86.342,298.579,0,192.46,0C86.334,0,0,86.342,0,192.46
		c0,47.447,17.086,92.211,48.284,127.399l-0.496,0.171l9.267,9.169l3.601,3.56l0.13-0.049
		c35.823,33.677,82.351,52.202,131.675,52.202c48.999,0,95.243-18.436,130.984-51.746l0.26,0.089l3.593-3.536l9.34-9.177
		l-0.504-0.171C367.655,285.118,384.912,240.183,384.912,192.46z M192.46,368.672c-42.277,0-82.334-14.827-114.19-42.017
		l80.001-27.832l-0.545-6.292c-0.049-0.602-0.13-1.187-0.203-1.788c-0.057-0.398-0.138-0.813-0.138-1.211v-20.834
		c10.722,6.446,22.573,10.12,35.067,10.12c12.502,0,24.345-3.674,35.067-10.12v20.834c0,0.634-0.106,1.244-0.179,1.861l-0.87,8.064
		l79.595,27.67C274.299,354.016,234.444,368.672,192.46,368.672z M141.145,230.364c-11.323-17.533-18.289-40.789-18.289-66.354
		c0-54.348,31.222-98.559,69.605-98.559s69.605,44.211,69.605,98.559c0,25.556-6.958,48.788-18.265,66.321
		c-4.259,6.609-9.137,12.38-14.518,17.159c-10.689,9.494-23.288,15.07-36.814,15.07c-13.526,0-26.125-5.584-36.814-15.07
		C150.265,242.719,145.404,236.956,141.145,230.364z M319.445,314.576l-75.653-26.32v-32.433
		c20.907-20.964,34.522-54.258,34.522-91.812c0-63.313-38.513-114.816-85.862-114.816S106.59,100.697,106.59,164.01
		c0,37.562,13.623,70.881,34.546,91.837v31.742l-76.165,26.499c-31.466-32.929-48.723-75.921-48.723-121.62
		c0-97.161,79.05-176.203,176.203-176.203s176.195,79.042,176.195,176.203C368.655,238.419,351.228,281.566,319.445,314.576z"/>
</g>
<g>
</g>
<g>
</g>
<g>
</g>
<g>
</g>
<g>
</g>
<g>
</g>
<g>
</g>
<g>
</g>
<g>
</g>
<g>
</g>
<g>
</g>
<g>
</g>
<g>
</g>
<g>
</g>
<g>
</g>
</svg>
